<?xml version="1.0" encoding="UTF-8" standalone="no"?>
<!-- Created with Inkscape (http://www.inkscape.org/) -->

<svg
   xmlns:dc="http://purl.org/dc/elements/1.1/"
   xmlns:cc="http://creativecommons.org/ns#"
   xmlns:rdf="http://www.w3.org/1999/02/22-rdf-syntax-ns#"
   xmlns:svg="http://www.w3.org/2000/svg"
   xmlns="http://www.w3.org/2000/svg"
   xmlns:sodipodi="http://sodipodi.sourceforge.net/DTD/sodipodi-0.dtd"
   xmlns:inkscape="http://www.inkscape.org/namespaces/inkscape"
   width="744.09448819"
   height="1052.3622047"
   id="svg2"
   version="1.1"
   inkscape:version="0.48.2 r9819"
   sodipodi:docname="New document 1">
  <defs
     id="defs4" />
  <sodipodi:namedview
     id="base"
     pagecolor="#ffffff"
     bordercolor="#666666"
     borderopacity="1.0"
     inkscape:pageopacity="0.0"
     inkscape:pageshadow="2"
     inkscape:zoom="0.58249908"
     inkscape:cx="372.04724"
     inkscape:cy="526.18109"
     inkscape:document-units="px"
     inkscape:current-layer="g3170"
     showgrid="false"
     inkscape:window-width="1018"
     inkscape:window-height="833"
     inkscape:window-x="1421"
     inkscape:window-y="155"
     inkscape:window-maximized="0" />
  <metadata
     id="metadata7">
    <rdf:RDF>
      <cc:Work
         rdf:about="">
        <dc:format>image/svg+xml</dc:format>
        <dc:type
           rdf:resource="http://purl.org/dc/dcmitype/StillImage" />
        <dc:title></dc:title>
      </cc:Work>
    </rdf:RDF>
  </metadata>
  <g
     inkscape:label="Layer 1"
     inkscape:groupmode="layer"
     id="layer1">
    <g
       id="g3170"
       transform="translate(-125.32208,3.4334818)"
       inkscape:export-filename="/Users/sudhir/Projects/trials/tortlets/sencha_src/tortlets/static/images/tortoise_smaller.png"
       inkscape:export-xdpi="20.52"
       inkscape:export-ydpi="20.52"
       style="stroke-width:0.20000001;stroke-miterlimit:4;stroke-dasharray:none;stroke:#000000;stroke-opacity:0.76793246999999998">
      <path
         style="fill:#fefecb;stroke-width:0.20000001;stroke-miterlimit:4;stroke-dasharray:none;stroke:#000000;stroke-opacity:0.76793246999999998"
         d="m 450.84368,748.38872 c -4.31748,-10.96863 -12.20714,-12.52196 -41.70094,-8.21016 l -36.376,5.31794 0,-28.98174 c 0,-29.62042 15.91096,-51.84129 49.76936,-69.50672 21.06484,-10.99046 40.9022,-5.9345 65.94029,16.80627 l 18.48097,16.78528 -5.02456,-19.51673 c -5.81204,-22.5755 12.15141,-41.51064 35.29904,-37.20842 23.7458,4.41339 23.47087,37.57326 -0.49103,59.22274 -14.371,12.98414 -19.52486,24.35087 -16.37142,36.10683 3.61056,13.46012 0.79494,17.15718 -13.06663,17.15718 -9.7179,0 -16.72979,4.4907 -15.58199,9.97933 3.30204,15.7899 -34.7182,17.69497 -40.87709,2.0482 z"
         id="path3236"
         inkscape:connector-curvature="0" />
      <path
         style="fill:#cbd4cb;stroke-width:0.20000001;stroke-miterlimit:4;stroke-dasharray:none;stroke:#000000;stroke-opacity:0.76793246999999998"
         d="m 450.84368,748.38872 c -4.31748,-10.96863 -12.20714,-12.52196 -41.70094,-8.21016 l -36.376,5.31794 0,-28.98174 c 0,-29.62042 15.91096,-51.84129 49.76936,-69.50672 21.06484,-10.99046 40.9022,-5.9345 65.94029,16.80627 l 18.48097,16.78528 -5.02456,-19.51673 c -5.81204,-22.5755 12.15141,-41.51064 35.29904,-37.20842 23.7458,4.41339 23.47087,37.57326 -0.49103,59.22274 -14.371,12.98414 -19.52486,24.35087 -16.37142,36.10683 3.61056,13.46012 0.79494,17.15718 -13.06663,17.15718 -9.7179,0 -16.72979,4.4907 -15.58199,9.97933 3.30204,15.7899 -34.7182,17.69497 -40.87709,2.0482 z"
         id="path3234"
         inkscape:connector-curvature="0" />
      <path
         style="fill:#cba9cb;stroke-width:0.20000001;stroke-miterlimit:4;stroke-dasharray:none;stroke:#000000;stroke-opacity:0.76793246999999998"
         d="m 450.76998,748.2015 c -4.35947,-11.07532 -12.38629,-12.7816 -41.70093,-8.86449 l -36.30231,4.85084 0,-28.71776 c 0,-29.13495 27.07481,-61.96034 60.13996,-72.91346 13.54903,-4.48823 53.52982,14.83423 67.4153,32.58138 3.58287,4.5793 4.19222,-1.44391 1.35411,-13.38492 -3.95232,-16.62885 -1.22222,-23.76554 11.66318,-30.48842 23.55573,-12.29007 43.07578,-2.64702 43.07578,21.27978 0,13.39216 -5.64652,21.67579 -16.6953,24.49256 -16.12103,4.10988 -20.26828,15.02342 -17.13185,45.08263 0.98383,9.42903 -4.33303,14.24155 -15.73404,14.24155 -9.47101,0 -16.28091,4.4907 -15.13311,9.97933 3.33167,15.93154 -34.73146,17.66129 -40.95079,1.86098 z"
         id="path3232"
         inkscape:connector-curvature="0" />
      <path
         style="fill:#cbd498;stroke-width:0.20000001;stroke-miterlimit:4;stroke-dasharray:none;stroke:#000000;stroke-opacity:0.76793246999999998"
         d="m 455.25472,755.23776 c -0.5437,-3.66824 -0.67918,-9.01985 -0.30109,-11.89247 1.0617,-8.06631 -48.96847,-13.2963 -53.83029,-5.62724 -11.48623,18.1184 -26.40626,4.83833 -26.66768,-23.73644 -0.23383,-25.55939 4.57155,-34.15363 29.57694,-52.89718 34.01005,-25.49328 45.826,-27.47811 60.55831,-10.17253 5.71554,6.71387 15.25357,12.20704 21.19561,12.20704 5.94204,0 12.8459,4.57764 15.3419,10.17253 2.49601,5.5949 2.47928,0.40262 -0.0376,-11.53838 -5.65497,-26.83579 23.02422,-47.18877 43.33633,-30.75454 17.54819,14.19798 14.80104,41.06499 -4.70742,46.03846 -16.16387,4.1208 -20.67292,15.34159 -18.11635,45.08263 0.78982,9.18823 -4.66485,14.24155 -15.37268,14.24155 -9.12828,0 -15.65777,4.4907 -14.50997,9.97933 1.1478,5.48863 -6.36508,11.2365 -16.6953,12.77305 -10.33022,1.53655 -19.22705,-0.2076 -19.77075,-3.87581 z"
         id="path3230"
         inkscape:connector-curvature="0" />
      <path
         style="fill:#cba998;stroke-width:0.20000001;stroke-miterlimit:4;stroke-dasharray:none;stroke:#000000;stroke-opacity:0.76793246999999998"
         d="m 455.25472,755.23776 c -0.5437,-3.66824 -0.67918,-9.01985 -0.30109,-11.89247 1.0617,-8.06631 -48.96847,-13.2963 -53.83029,-5.62724 -11.48623,18.1184 -26.40626,4.83833 -26.66768,-23.73644 -0.23383,-25.55939 4.57155,-34.15363 29.57694,-52.89718 34.01005,-25.49328 45.826,-27.47811 60.55831,-10.17253 5.71554,6.71387 15.25357,12.20704 21.19561,12.20704 5.94204,0 12.8459,4.57764 15.3419,10.17253 2.49601,5.5949 2.47928,0.40262 -0.0376,-11.53838 -5.65497,-26.83579 23.02422,-47.18877 43.33633,-30.75454 17.54819,14.19798 14.80104,41.06499 -4.70742,46.03846 -16.16387,4.1208 -20.67292,15.34159 -18.11635,45.08263 0.78982,9.18823 -4.66485,14.24155 -15.37268,14.24155 -9.12828,0 -15.65777,4.4907 -14.50997,9.97933 1.1478,5.48863 -6.36508,11.2365 -16.6953,12.77305 -10.33022,1.53655 -19.22705,-0.2076 -19.77075,-3.87581 z"
         id="path3228"
         inkscape:connector-curvature="0" />
      <path
         style="fill:#cbd465;stroke-width:0.20000001;stroke-miterlimit:4;stroke-dasharray:none;stroke:#000000;stroke-opacity:0.76793246999999998"
         d="m 455.25472,755.23776 c -0.5437,-3.66824 -0.67918,-9.01985 -0.30109,-11.89247 1.0617,-8.06631 -48.96847,-13.2963 -53.83029,-5.62724 -2.36443,3.72964 -9.33628,6.78117 -15.49301,6.78117 -16.6357,0 -14.54041,-57.81895 2.57957,-71.18239 46.50963,-36.30431 48.81602,-36.92631 78.07615,-21.05613 15.1369,8.20999 30.45308,18.58936 34.03595,23.06528 3.58287,4.47591 4.19222,-1.63188 1.35411,-13.57289 -6.37213,-26.80993 22.21164,-47.3727 42.75108,-30.75454 17.54819,14.19798 14.80104,41.06499 -4.70742,46.03846 -16.16387,4.1208 -20.67292,15.34159 -18.11635,45.08263 0.78982,9.18823 -4.66485,14.24155 -15.37268,14.24155 -9.12828,0 -15.65777,4.4907 -14.50997,9.97933 1.1478,5.48863 -6.36508,11.2365 -16.6953,12.77305 -10.33022,1.53655 -19.22705,-0.2076 -19.77075,-3.87581 z"
         id="path3226"
         inkscape:connector-curvature="0" />
      <path
         style="fill:#98a998;stroke-width:0.20000001;stroke-miterlimit:4;stroke-dasharray:none;stroke:#000000;stroke-opacity:0.76793246999999998"
         d="m 455.25472,755.23776 c -0.5437,-3.66824 -0.67918,-9.01985 -0.30109,-11.89247 1.0617,-8.06631 -48.96847,-13.2963 -53.83029,-5.62724 -2.36443,3.72964 -9.33628,6.78117 -15.49301,6.78117 -16.6357,0 -14.54041,-57.81895 2.57957,-71.18239 46.50963,-36.30431 48.81602,-36.92631 78.07615,-21.05613 15.1369,8.20999 30.45308,18.58936 34.03595,23.06528 3.58287,4.47591 4.19222,-1.63188 1.35411,-13.57289 -6.37213,-26.80993 22.21164,-47.3727 42.75108,-30.75454 17.54819,14.19798 14.80104,41.06499 -4.70742,46.03846 -16.16387,4.1208 -20.67292,15.34159 -18.11635,45.08263 0.78982,9.18823 -4.66485,14.24155 -15.37268,14.24155 -9.12828,0 -15.65777,4.4907 -14.50997,9.97933 1.1478,5.48863 -6.36508,11.2365 -16.6953,12.77305 -10.33022,1.53655 -19.22705,-0.2076 -19.77075,-3.87581 z m 38.55296,-59.56671 c 2.83753,-4.47592 1.181,-8.13803 -3.68117,-8.13803 -4.86216,0 -8.8403,3.66211 -8.8403,8.13803 0,4.47591 1.65652,8.13803 3.68117,8.13803 2.02465,0 6.00278,-3.66212 8.8403,-8.13803 z m 50.42916,-56.42476 c -7.09673,-11.1944 -21.21238,-11.23509 -21.21238,-0.0611 0,4.74007 3.75645,6.355 8.34766,3.58873 4.5912,-2.76627 8.34765,-0.54099 8.34765,4.94507 0,5.48605 2.25437,7.77688 5.00972,5.09073 2.75535,-2.68616 2.53365,-8.78968 -0.49268,-13.56338 z"
         id="path3224"
         inkscape:connector-curvature="0" />
      <path
         style="fill:#cba965;stroke-width:0.20000001;stroke-miterlimit:4;stroke-dasharray:none;stroke:#000000;stroke-opacity:0.76793246999999998"
         d="m 452.84078,754.74556 c -2.08717,-2.03476 -2.13365,-7.91917 -0.10329,-13.07647 4.1528,-10.54851 -37.21932,-11.90849 -54.0359,-1.77627 -14.78383,8.90747 -21.10327,-0.30788 -22.24796,-32.44313 -0.65892,-18.49821 2.80822,-28.0547 10.17837,-28.0547 6.14773,0 11.1777,-3.57769 11.1777,-7.95042 0,-4.37273 9.44209,-13.98176 20.98243,-21.3534 20.01172,-12.78291 22.48233,-12.43532 53.40336,7.5134 31.01082,20.00665 32.60585,20.22699 36.67263,5.06612 2.33844,-8.71765 0.88861,-13.82396 -3.22183,-11.34735 -4.11045,2.4766 -5.34791,-0.89731 -2.74991,-7.49758 7.15392,-18.17467 29.93682,-23.46029 43.62076,-10.11998 12.63927,12.32188 7.45614,42.07011 -5.92526,34.00763 -9.77031,-5.88675 -26.69726,40.91535 -20.49589,56.67003 3.25644,8.27307 -0.87774,11.97775 -13.36637,11.97775 -9.94459,0 -16.02493,3.24335 -13.51188,7.20745 4.66115,7.35251 -33.47215,17.90834 -40.37696,11.17692 z m 40.9669,-59.07451 c 2.83753,-4.47592 1.181,-8.13803 -3.68117,-8.13803 -4.86216,0 -8.8403,3.66211 -8.8403,8.13803 0,4.47591 1.65652,8.13803 3.68117,8.13803 2.02465,0 6.00278,-3.66212 8.8403,-8.13803 z m 50.42916,-56.42476 c -7.09673,-11.1944 -21.21238,-11.23509 -21.21238,-0.0611 0,4.74007 3.75645,6.355 8.34766,3.58873 4.5912,-2.76627 8.34765,-0.54099 8.34765,4.94507 0,5.48605 2.25437,7.77688 5.00972,5.09073 2.75535,-2.68616 2.53365,-8.78968 -0.49268,-13.56338 z"
         id="path3222"
         inkscape:connector-curvature="0" />
      <path
         style="fill:#98d465;stroke-width:0.20000001;stroke-miterlimit:4;stroke-dasharray:none;stroke:#000000;stroke-opacity:0.76793246999999998"
         d="m 453.44171,753.58037 c -1.32169,-2.75668 -1.74963,-13.15616 -0.95098,-23.10996 0.79862,-9.9538 -1.84803,-16.10945 -5.88152,-13.67923 -4.03347,2.43023 -4.97207,8.14366 -2.08577,12.69652 3.12746,4.93328 -2.71994,7.27361 -14.47223,5.79229 -10.84602,-1.3671 -24.66551,0.51467 -30.70998,4.18171 -15.41131,9.34967 -21.72902,0.51333 -22.8876,-32.01201 -0.65892,-18.49821 2.80822,-28.0547 10.17837,-28.0547 6.14773,0 11.1777,-3.57769 11.1777,-7.95042 0,-4.37273 9.44209,-13.98176 20.98243,-21.3534 20.01172,-12.78291 22.48233,-12.43532 53.40336,7.5134 31.01082,20.00665 32.60585,20.22699 36.67263,5.06612 2.33844,-8.71765 0.88861,-13.82396 -3.22183,-11.34735 -4.11045,2.4766 -5.34791,-0.89731 -2.74991,-7.49758 2.59801,-6.60027 10.54399,-14.17788 17.65774,-16.83913 24.84816,-9.29569 48.80626,27.37201 26.61898,40.74016 -6.21687,3.74575 -7.61121,-0.75861 -4.25986,-13.76127 2.74016,-10.63132 -1.13278,-6.51229 -8.60653,9.15342 -7.47376,15.6657 -13.69579,38.5539 -13.82673,50.86267 -0.17496,16.4481 -4.42482,22.37958 -16.03475,22.37958 -8.68817,0 -13.74054,3.24335 -11.22749,7.20745 2.51306,3.9641 -4.86779,8.96614 -16.40188,11.11565 -11.53409,2.14952 -22.05246,1.65275 -23.37415,-1.10392 z m 40.36597,-57.90932 c 2.83753,-4.47592 -0.91891,-8.13803 -8.34765,-8.13803 -7.42873,0 -11.18517,3.66211 -8.34765,8.13803 2.83753,4.47591 6.59397,8.13803 8.34765,8.13803 1.75369,0 5.51013,-3.66212 8.34765,-8.13803 z m 41.73826,-56.9662 c 2.83753,-4.47591 1.18099,-8.13802 -3.68117,-8.13802 -4.86217,0 -8.84031,3.66211 -8.84031,8.13802 0,4.47592 1.65653,8.13803 3.68118,8.13803 2.02464,0 6.00278,-3.66211 8.8403,-8.13803 z"
         id="path3220"
         inkscape:connector-curvature="0" />
      <path
         style="fill:#987f98;stroke-width:0.20000001;stroke-miterlimit:4;stroke-dasharray:none;stroke:#000000;stroke-opacity:0.76793246999999998"
         d="m 453.44171,753.58037 c -1.32169,-2.75668 -1.74963,-13.15616 -0.95098,-23.10996 0.79862,-9.9538 -1.84803,-16.10945 -5.88152,-13.67923 -4.03347,2.43023 -4.97207,8.14366 -2.08577,12.69652 3.12746,4.93328 -2.71994,7.27361 -14.47223,5.79229 -10.84602,-1.3671 -24.66551,0.51467 -30.70998,4.18171 -15.41131,9.34967 -21.72902,0.51333 -22.8876,-32.01201 -0.65892,-18.49821 2.80822,-28.0547 10.17837,-28.0547 6.14773,0 11.1777,-3.57769 11.1777,-7.95042 0,-4.37273 9.44209,-13.98176 20.98243,-21.3534 20.01172,-12.78291 22.48233,-12.43532 53.40336,7.5134 31.01082,20.00665 32.60585,20.22699 36.67263,5.06612 2.33844,-8.71765 0.88861,-13.82396 -3.22183,-11.34735 -4.11045,2.4766 -5.34791,-0.89731 -2.74991,-7.49758 6.66325,-16.9281 28.50189,-23.36872 42.05526,-12.40288 13.08971,10.59069 15.07241,28.56103 3.89427,35.29602 -4.16304,2.50829 -6.00177,-3.68428 -4.08607,-13.76127 2.08623,-10.97398 -2.03621,-6.89887 -10.27933,10.16131 -7.56935,15.6657 -13.86959,38.5539 -14.00053,50.86267 -0.17496,16.4481 -4.42482,22.37958 -16.03475,22.37958 -8.68817,0 -13.74054,3.24335 -11.22749,7.20745 2.51306,3.9641 -4.86779,8.96614 -16.40188,11.11565 -11.53409,2.14952 -22.05246,1.65275 -23.37415,-1.10392 z m 40.36597,-57.90932 c 2.83753,-4.47592 -0.91891,-8.13803 -8.34765,-8.13803 -7.42873,0 -11.18517,3.66211 -8.34765,8.13803 2.83753,4.47591 6.59397,8.13803 8.34765,8.13803 1.75369,0 5.51013,-3.66212 8.34765,-8.13803 z m 41.73826,-56.9662 c 2.83753,-4.47591 1.18099,-8.13802 -3.68117,-8.13802 -4.86217,0 -8.84031,3.66211 -8.84031,8.13802 0,4.47592 1.65653,8.13803 3.68118,8.13803 2.02464,0 6.00278,-3.66211 8.8403,-8.13803 z"
         id="path3218"
         inkscape:connector-curvature="0" />
      <path
         style="fill:#98a965;stroke-width:0.20000001;stroke-miterlimit:4;stroke-dasharray:none;stroke:#000000;stroke-opacity:0.76793246999999998"
         d="m 452.48679,732.25205 c 1.26246,-11.21185 -1.1936,-18.28303 -5.4579,-15.71372 -4.2643,2.5693 -5.54242,8.15884 -2.84028,12.42122 2.73008,4.30642 -5.55465,7.16172 -18.64605,6.42629 -12.95747,-0.72795 -28.88209,0.10929 -35.38803,1.86044 -8.52116,2.29358 -12.23045,-5.34996 -13.26461,-27.33368 -0.82762,-17.59301 2.44787,-30.51761 7.73408,-30.51761 5.04333,0 13.54077,-6.82343 18.88319,-15.16319 15.403,-24.04477 40.36177,-25.62704 72.14288,-4.57352 28.03129,18.56943 29.01983,18.66331 33.18091,3.1509 2.35887,-8.79382 0.92575,-13.96245 -3.18469,-11.48584 -4.11045,2.4766 -5.34791,-0.89731 -2.74991,-7.49758 2.59801,-6.60027 9.87656,-13.92819 16.17456,-16.28428 7.96915,-2.98125 9.83586,-0.0795 6.13929,9.54332 -4.6216,12.03081 -3.49476,12.38651 8.67399,2.73802 11.98886,-9.50584 14.75391,-9.13727 19.36666,2.58153 2.95957,7.51883 1.33597,17.61408 -3.60799,22.43389 -6.42027,6.25904 -7.90468,3.19576 -5.19449,-10.71955 2.58978,-13.29705 -0.57503,-10.43948 -9.96789,9.00025 -7.56935,15.6657 -13.86959,38.5539 -14.00053,50.86267 -0.17224,16.19166 -4.4696,22.37958 -15.5421,22.37958 -8.41721,0 -15.30402,-4.27247 -15.30402,-9.49437 0,-5.2219 -2.41352,-7.14145 -5.36338,-4.26568 -2.94985,2.87579 -0.61171,10.81036 5.19596,17.6324 9.05938,10.64176 7.01986,12.4037 -14.35784,12.4037 -21.63718,0 -24.61502,-2.68341 -22.62181,-20.38519 z m 41.32089,-36.581 c 2.83753,-4.47592 -0.91891,-8.13803 -8.34765,-8.13803 -7.42873,0 -11.18517,3.66211 -8.34765,8.13803 2.83753,4.47591 6.59397,8.13803 8.34765,8.13803 1.75369,0 5.51013,-3.66212 8.34765,-8.13803 z"
         id="path3216"
         inkscape:connector-curvature="0" />
      <path
         style="fill:#987f65;stroke-width:0.20000001;stroke-miterlimit:4;stroke-dasharray:none;stroke:#000000;stroke-opacity:0.76793246999999998"
         d="m 451.77274,738.25262 c 0.59786,-7.91155 4.11964,-19.16824 7.82613,-25.01487 5.52863,-8.72088 3.64324,-8.74541 -10.49676,-0.13656 -12.34877,7.51828 -14.37163,12.26823 -7.13427,16.75223 6.40041,3.96545 3.03934,6.30422 -9.17328,6.38318 -11.95271,0.0773 -17.11172,-3.28754 -13.5806,-8.85755 3.13185,-4.94018 -4.15934,-2.68795 -16.20265,5.00497 -12.0433,7.69289 -22.28885,12.65039 -22.76788,11.01664 -5.92717,-20.2148 -2.9281,-63.88388 4.22766,-61.55853 4.96881,1.61468 12.82002,-4.30195 17.44714,-13.14807 14.51947,-27.75828 40.61037,-30.97722 73.65445,-9.08704 28.90778,19.15006 29.80952,19.24093 34.92783,3.51954 2.88967,-8.87592 2.58217,-20.74844 -0.68334,-26.38339 -4.67995,-8.07571 -3.61554,-8.14858 5.02628,-0.34409 6.02996,5.4457 10.19024,21.9252 9.24506,36.62112 -0.94519,14.69593 -1.96865,34.95962 -2.27436,45.03043 -0.67716,22.3079 -31.81677,26.16631 -32.83931,4.06901 -0.4143,-8.95238 -2.25749,-10.36196 -4.96302,-3.7954 -2.3672,5.74539 0.26754,15.81619 5.85497,22.37958 8.53692,10.02805 6.21998,11.93342 -14.51105,11.93342 -18.43364,0 -24.39524,-3.63632 -23.583,-14.38462 z m 52.69902,-47.11204 c 10.20398,-6.96768 18.43847,-17.03849 18.29886,-22.37958 -0.13961,-5.34109 -4.08271,-3.30238 -8.76245,4.53047 -4.67973,7.83285 -15.83483,14.24155 -24.78911,14.24155 -8.95428,0 -16.2805,3.66211 -16.2805,8.13803 0,11.55281 10.10598,10.10085 31.5332,-4.53047 z m 39.42183,-40.22868 c 0,-10.33497 2.81733,-17.09337 6.26074,-15.01867 3.44341,2.0747 6.26074,8.8331 6.26074,15.01867 0,6.18556 -2.81733,12.94396 -6.26074,15.01866 -3.44341,2.0747 -6.26074,-4.6837 -6.26074,-15.01866 z"
         id="path3214"
         inkscape:connector-curvature="0" />
      <path
         style="fill:#98a932;stroke-width:0.20000001;stroke-miterlimit:4;stroke-dasharray:none;stroke:#000000;stroke-opacity:0.76793246999999998"
         d="m 451.77274,738.25262 c 0.59786,-7.91155 4.11964,-19.16824 7.82613,-25.01487 7.15014,-11.27864 5.89631,-10.83056 -51.35461,18.35249 -14.92143,7.60603 -27.5218,12.70659 -28.00083,11.33456 -6.04494,-17.31373 -2.85626,-63.38468 4.22766,-61.08267 4.96881,1.61468 12.82002,-4.30195 17.44714,-13.14807 14.51947,-27.75828 40.61037,-30.97722 73.65445,-9.08704 28.90778,19.15006 29.80952,19.24093 34.92783,3.51954 2.88967,-8.87592 2.58217,-20.74844 -0.68334,-26.38339 -4.67995,-8.07571 -3.61554,-8.14858 5.02628,-0.34409 6.02996,5.4457 10.19024,21.9252 9.24506,36.62112 -0.94519,14.69593 -1.96865,34.95962 -2.27436,45.03043 -0.67716,22.3079 -31.81677,26.16631 -32.83931,4.06901 -0.4143,-8.95238 -2.25749,-10.36196 -4.96302,-3.7954 -2.3672,5.74539 0.26754,15.81619 5.85497,22.37958 8.53692,10.02805 6.21998,11.93342 -14.51105,11.93342 -18.43364,0 -24.39524,-3.63632 -23.583,-14.38462 z m 55.98603,-47.91188 c 8.39614,-7.40758 15.15146,-17.47839 15.01185,-22.37958 -0.13961,-4.90118 -4.08271,-2.50254 -8.76245,5.33031 -4.67973,7.83285 -15.83483,14.24155 -24.78911,14.24155 -8.95428,0 -16.2805,3.66211 -16.2805,8.13803 0,12.42767 17.77689,9.70637 34.82021,-5.33031 z m -86.99303,40.63079 c 5.73901,-2.25759 15.13011,-2.25759 20.86912,0 5.73901,2.25759 1.04346,4.1047 -10.43456,4.1047 -11.47802,0 -16.17357,-1.84711 -10.43456,-4.1047 z M 543.89359,650.9119 c 0,-10.33497 2.81733,-17.09337 6.26074,-15.01867 3.44341,2.0747 6.26074,8.8331 6.26074,15.01867 0,6.18556 -2.81733,12.94396 -6.26074,15.01866 -3.44341,2.0747 -6.26074,-4.6837 -6.26074,-15.01866 z"
         id="path3212"
         inkscape:connector-curvature="0" />
      <path
         style="fill:#985465;stroke-width:0.20000001;stroke-miterlimit:4;stroke-dasharray:none;stroke:#000000;stroke-opacity:0.76793246999999998"
         d="m 451.77274,738.25262 c 0.59786,-7.91155 4.27763,-19.81341 8.17725,-26.44859 5.76308,-9.80589 4.986,-10.15992 -4.15163,-1.89143 -6.183,5.59489 -19.5686,10.17253 -29.74578,10.17253 -10.17718,0 -19.75611,3.38746 -21.28651,7.52768 -1.5304,4.14022 -8.1056,8.71786 -14.61154,10.17253 -8.42158,1.883 -12.24504,-6.21631 -13.27331,-28.11706 -0.89118,-18.98069 2.0156,-29.63758 7.58987,-27.82615 4.96881,1.61468 12.82002,-4.30195 17.44714,-13.14807 14.51947,-27.75828 40.61037,-30.97722 73.65445,-9.08704 28.90778,19.15006 29.80952,19.24093 34.92783,3.51954 2.88967,-8.87592 2.58217,-20.74844 -0.68334,-26.38339 -4.67995,-8.07571 -3.61554,-8.14858 5.02628,-0.34409 6.02996,5.4457 10.19024,21.9252 9.24506,36.62112 -0.94519,14.69593 -1.96865,34.95962 -2.27436,45.03043 -0.67716,22.3079 -31.81677,26.16631 -32.83931,4.06901 -0.4143,-8.95238 -2.25749,-10.36196 -4.96302,-3.7954 -2.3672,5.74539 0.26754,15.81619 5.85497,22.37958 8.53692,10.02805 6.21998,11.93342 -14.51105,11.93342 -18.43364,0 -24.39524,-3.63632 -23.583,-14.38462 z m 59.63141,-48.68509 c 6.09914,-7.83285 11.09459,-17.90366 11.10099,-22.37958 0.006,-4.47591 -3.81723,-1.72933 -8.49697,6.10352 -4.67973,7.83285 -15.83483,14.24155 -24.78911,14.24155 -8.95428,0 -16.2805,3.66211 -16.2805,8.13803 0,13.40748 26.55397,9.19403 38.46559,-6.10352 z m -54.09611,-16.27606 c 10.3834,-12.90736 10.08814,-13.19521 -3.1517,-3.07255 -8.03461,6.14294 -14.60839,12.55164 -14.60839,14.24155 0,6.69787 6.85498,2.38691 17.76009,-11.169 z m -36.5423,57.68006 c 5.73901,-2.25759 15.13011,-2.25759 20.86912,0 5.73901,2.25759 1.04346,4.1047 -10.43456,4.1047 -11.47802,0 -16.17357,-1.84711 -10.43456,-4.1047 z M 543.89359,650.9119 c 0,-10.33497 2.81733,-17.09337 6.26074,-15.01867 3.44341,2.0747 6.26074,8.8331 6.26074,15.01867 0,6.18556 -2.81733,12.94396 -6.26074,15.01866 -3.44341,2.0747 -6.26074,-4.6837 -6.26074,-15.01866 z"
         id="path3210"
         inkscape:connector-curvature="0" />
      <path
         style="fill:#657f65;stroke-width:0.20000001;stroke-miterlimit:4;stroke-dasharray:none;stroke:#000000;stroke-opacity:0.76793246999999998"
         d="m 451.77274,738.25262 c 0.59786,-7.91155 4.27763,-19.81341 8.17725,-26.44859 5.76308,-9.80589 4.986,-10.15992 -4.15163,-1.89143 -6.183,5.59489 -19.5686,10.17253 -29.74578,10.17253 -10.17718,0 -19.75611,3.38746 -21.28651,7.52768 -1.5304,4.14022 -8.1056,8.71786 -14.61154,10.17253 -8.42158,1.883 -12.24504,-6.21631 -13.27331,-28.11706 -0.89118,-18.98069 2.0156,-29.63758 7.58987,-27.82615 4.96881,1.61468 12.82002,-4.30195 17.44714,-13.14807 14.51947,-27.75828 40.61037,-30.97722 73.65445,-9.08704 28.90778,19.15006 29.80952,19.24093 34.92783,3.51954 2.88967,-8.87592 2.55285,-20.39874 -0.74845,-25.60628 -3.48529,-5.4977 -2.38348,-7.28777 2.62739,-4.26866 4.7464,2.85978 10.61114,12.58594 13.03277,21.6137 2.42162,9.02776 1.43688,14.62701 -2.18832,12.44278 -3.62523,-2.18424 -5.45505,12.45916 -4.06631,32.54087 2.17367,31.43215 0.29546,36.51222 -13.49937,36.51222 -9.44513,0 -16.29494,-5.84725 -16.68338,-14.24155 -0.4143,-8.95238 -2.25749,-10.36196 -4.96302,-3.7954 -2.3672,5.74539 0.26754,15.81619 5.85497,22.37958 8.53692,10.02805 6.21998,11.93342 -14.51105,11.93342 -18.43364,0 -24.39524,-3.63632 -23.583,-14.38462 z m 57.07504,-45.38004 c 3.08336,-7.83332 -1.40043,-9.87326 -15.80219,-7.18932 -11.05887,2.06095 -20.10703,6.98237 -20.10703,10.9365 0,11.52891 31.17682,8.27556 35.90922,-3.74718 z m -51.53974,-19.58111 c 10.3834,-12.90736 10.08814,-13.19521 -3.1517,-3.07255 -8.03461,6.14294 -14.60839,12.55164 -14.60839,14.24155 0,6.69787 6.85498,2.38691 17.76009,-11.169 z m -36.5423,57.68006 c 5.73901,-2.25759 15.13011,-2.25759 20.86912,0 5.73901,2.25759 1.04346,4.1047 -10.43456,4.1047 -11.47802,0 -16.17357,-1.84711 -10.43456,-4.1047 z M 543.89359,650.9119 c 0,-10.33497 2.81733,-17.09337 6.26074,-15.01867 3.44341,2.0747 6.26074,8.8331 6.26074,15.01867 0,6.18556 -2.81733,12.94396 -6.26074,15.01866 -3.44341,2.0747 -6.26074,-4.6837 -6.26074,-15.01866 z"
         id="path3208"
         inkscape:connector-curvature="0" />
      <path
         style="fill:#98a900;stroke-width:0.20000001;stroke-miterlimit:4;stroke-dasharray:none;stroke:#000000;stroke-opacity:0.76793246999999998"
         d="m 451.77274,738.25262 c 0.59786,-7.91155 4.27763,-19.81341 8.17725,-26.44859 5.76308,-9.80589 4.986,-10.15992 -4.15163,-1.89143 -6.183,5.59489 -19.88164,10.17253 -30.44142,10.17253 -10.55977,0 -19.19959,3.66212 -19.19959,8.13803 0,4.47592 -7.07613,8.13803 -15.72474,8.13803 -12.02694,0 -15.30008,-5.26273 -13.91888,-22.37958 0.99322,-12.30877 4.78763,-23.06437 8.43202,-23.90135 3.64439,-0.83697 10.93404,-9.99225 16.19922,-20.34507 12.89351,-25.35224 48.60802,-28.50604 79.55251,-7.02494 24.33329,16.89173 24.43853,16.8939 29.73834,0.615 2.92524,-8.98519 2.61754,-20.59743 -0.68375,-25.80496 -3.48529,-5.4977 -2.38348,-7.28778 2.62739,-4.26866 4.7464,2.85977 10.61114,12.58593 13.03277,21.61369 2.42162,9.02776 1.43688,14.62701 -2.18832,12.44278 -3.62524,-2.18424 -5.45506,12.45916 -4.06632,32.54087 2.17367,31.43215 0.29546,36.51222 -13.49937,36.51222 -9.44513,0 -16.29494,-5.84725 -16.68338,-14.24155 -0.4143,-8.95238 -2.25749,-10.36196 -4.96302,-3.7954 -2.3672,5.74539 0.26754,15.81619 5.85497,22.37958 8.53692,10.02805 6.21998,11.93342 -14.51105,11.93342 -18.43364,0 -24.39524,-3.63632 -23.583,-14.38462 z m 57.07504,-45.38004 c 3.08336,-7.83332 -1.40043,-9.87326 -15.80219,-7.18932 -11.05887,2.06095 -20.10703,6.98237 -20.10703,10.9365 0,11.52891 31.17682,8.27556 35.90922,-3.74718 z m -51.53974,-19.10876 c 6.52667,-7.84407 7.21472,-11.28889 1.59893,-8.00528 -5.42176,3.17015 -12.21723,2.04207 -15.10104,-2.50686 -2.8838,-4.54892 -9.71714,-8.15941 -15.1852,-8.0233 -5.46805,0.1361 -3.28912,4.02329 4.84205,8.63819 8.13118,4.6149 12.60505,11.82777 9.94191,16.02859 -8.14466,12.84741 1.7385,8.48896 13.90335,-6.13134 z m 86.58555,-22.85192 c 0,-10.33497 2.81733,-17.09337 6.26074,-15.01867 3.44341,2.0747 6.26074,8.8331 6.26074,15.01867 0,6.18556 -2.81733,12.94396 -6.26074,15.01866 -3.44341,2.0747 -6.26074,-4.6837 -6.26074,-15.01866 z"
         id="path3206"
         inkscape:connector-curvature="0" />
      <path
         style="fill:#65a932;stroke-width:0.20000001;stroke-miterlimit:4;stroke-dasharray:none;stroke:#000000;stroke-opacity:0.76793246999999998"
         d="m 451.77274,738.25262 c 0.59786,-7.91155 4.27763,-19.81341 8.17725,-26.44859 5.76308,-9.80589 4.986,-10.15992 -4.15163,-1.89143 -6.183,5.59489 -19.88164,10.17253 -30.44142,10.17253 -10.55977,0 -19.19959,3.66212 -19.19959,8.13803 0,4.47592 -7.07613,8.13803 -15.72474,8.13803 -12.02694,0 -15.30008,-5.26273 -13.91888,-22.37958 0.99322,-12.30877 4.78763,-23.06437 8.43202,-23.90135 3.64439,-0.83697 10.93404,-9.99225 16.19922,-20.34507 12.89351,-25.35224 48.60802,-28.50604 79.55251,-7.02494 24.33329,16.89173 24.43853,16.8939 29.73834,0.615 2.92524,-8.98519 2.61754,-20.59743 -0.68375,-25.80496 -3.48529,-5.4977 -2.38348,-7.28778 2.62739,-4.26866 4.7464,2.85977 10.61114,12.58593 13.03277,21.61369 2.42162,9.02776 1.43688,14.62701 -2.18832,12.44278 -3.62524,-2.18424 -5.45506,12.45916 -4.06632,32.54087 2.17367,31.43215 0.29546,36.51222 -13.49937,36.51222 -9.44513,0 -16.29494,-5.84725 -16.68338,-14.24155 -0.4143,-8.95238 -2.25749,-10.36196 -4.96302,-3.7954 -2.3672,5.74539 0.26754,15.81619 5.85497,22.37958 8.53692,10.02805 6.21998,11.93342 -14.51105,11.93342 -18.43364,0 -24.39524,-3.63632 -23.583,-14.38462 z m 57.07504,-45.38004 c 3.08336,-7.83332 -1.40043,-9.87326 -15.80219,-7.18932 -11.05887,2.06095 -20.10703,6.98237 -20.10703,10.9365 0,11.52891 31.17682,8.27556 35.90922,-3.74718 z m -50.43311,-21.96926 c 5.69253,-6.37017 6.93924,-8.92835 2.77047,-5.68485 -4.16878,3.24351 -12.71155,1.74509 -18.98395,-3.32981 -6.27239,-5.07491 -13.81787,-6.87419 -16.76772,-3.99841 -2.94985,2.87578 -0.5209,5.22869 5.39768,5.22869 8.34841,0 8.55589,2.59033 0.92542,11.55361 -13.61759,15.99616 12.26566,12.33648 26.6581,-3.76923 z m 85.47892,-19.99142 c 0,-10.33497 2.81733,-17.09337 6.26074,-15.01867 3.44341,2.0747 6.26074,8.8331 6.26074,15.01867 0,6.18556 -2.81733,12.94396 -6.26074,15.01866 -3.44341,2.0747 -6.26074,-4.6837 -6.26074,-15.01866 z"
         id="path3204"
         inkscape:connector-curvature="0" />
      <path
         style="fill:#655465;stroke-width:0.20000001;stroke-miterlimit:4;stroke-dasharray:none;stroke:#000000;stroke-opacity:0.76793246999999998"
         d="m 451.77274,738.25262 c 0.59786,-7.91155 4.27763,-19.81341 8.17725,-26.44859 5.76308,-9.80589 4.986,-10.15992 -4.15163,-1.89143 -6.183,5.59489 -19.88164,10.17253 -30.44142,10.17253 -10.55977,0 -19.19959,3.66212 -19.19959,8.13803 0,4.47592 -7.07613,8.13803 -15.72474,8.13803 -12.02694,0 -15.30008,-5.26273 -13.91888,-22.37958 0.99322,-12.30877 4.78763,-23.06437 8.43202,-23.90135 3.64439,-0.83697 10.93404,-9.99225 16.19922,-20.34507 12.89351,-25.35224 48.60802,-28.50604 79.55251,-7.02494 24.33329,16.89173 24.43853,16.8939 29.73834,0.615 2.92524,-8.98519 2.61754,-20.59743 -0.68375,-25.80496 -3.48529,-5.4977 -2.38348,-7.28778 2.62739,-4.26866 4.7464,2.85977 10.61114,12.58593 13.03277,21.61369 2.42162,9.02776 1.43688,14.62701 -2.18832,12.44278 -3.62524,-2.18424 -5.45506,12.45916 -4.06632,32.54087 2.17367,31.43215 0.29546,36.51222 -13.49937,36.51222 -9.44513,0 -16.29494,-5.84725 -16.68338,-14.24155 -0.4143,-8.95238 -2.25749,-10.36196 -4.96302,-3.7954 -2.3672,5.74539 0.26754,15.81619 5.85497,22.37958 8.53692,10.02805 6.21998,11.93342 -14.51105,11.93342 -18.43364,0 -24.39524,-3.63632 -23.583,-14.38462 z m 57.07504,-45.38004 c 3.08336,-7.83332 -1.40043,-9.87326 -15.80219,-7.18932 -11.05887,2.06095 -20.10703,6.98237 -20.10703,10.9365 0,11.52891 31.17682,8.27556 35.90922,-3.74718 z M 457.7815,672.41204 c 5.73806,-7.34916 7.14585,-10.6473 3.12844,-7.3292 -4.01741,3.3181 -12.43635,1.88072 -18.70875,-3.19418 -6.27239,-5.07491 -13.81787,-6.87419 -16.76772,-3.99841 -2.94985,2.87578 -0.39865,5.22869 5.66934,5.22869 7.91889,0 6.9167,4.43393 -3.55093,15.71006 -13.98477,15.06496 -13.87774,15.53011 2.60659,11.32761 9.45462,-2.41035 21.88498,-10.39541 27.62303,-17.74457 z m 86.11209,-21.50014 c 0,-10.33497 2.81733,-17.09337 6.26074,-15.01867 3.44341,2.0747 6.26074,8.8331 6.26074,15.01867 0,6.18556 -2.81733,12.94396 -6.26074,15.01866 -3.44341,2.0747 -6.26074,-4.6837 -6.26074,-15.01866 z"
         id="path3202"
         inkscape:connector-curvature="0" />
      <path
         style="fill:#657f32;stroke-width:0.20000001;stroke-miterlimit:4;stroke-dasharray:none;stroke:#000000;stroke-opacity:0.76793246999999998"
         d="m 454.00861,737.04745 c -2.3,-8.57438 -0.85991,-19.56072 3.20023,-24.41408 5.12049,-6.12087 4.31319,-6.33112 -2.63512,-0.68627 -5.50945,4.47592 -18.657,8.13803 -29.21678,8.13803 -10.55977,0 -19.19959,3.66212 -19.19959,8.13803 0,4.47592 -6.97377,8.13803 -15.49726,8.13803 -11.84912,0 -15.28801,-5.74283 -14.60839,-24.39553 0.49618,-13.61779 5.49877,-24.40372 11.32343,-24.41408 5.73901,-0.0102 10.43457,-5.38288 10.43457,-11.93927 0,-13.68282 25.18118,-28.85433 47.45021,-28.58847 8.33644,0.0995 24.53593,7.20548 35.99887,15.79101 20.62598,15.44849 20.93685,15.43673 30.0347,-1.13588 8.12108,-14.79332 9.81651,-15.16194 14.54021,-3.1613 2.94095,7.47155 2.07382,11.61239 -1.92695,9.20187 -4.00077,-2.41053 -6.13789,12.04772 -4.74915,32.12943 2.1412,30.96251 0.18238,36.51222 -12.88729,36.51222 -8.47675,0 -17.01825,-4.57764 -18.9811,-10.17254 -1.96285,-5.59489 -2.16672,-1.93278 -0.45302,8.13803 3.98166,23.39913 -26.60084,25.93382 -32.82755,2.72077 z m 54.83917,-44.17487 c 3.08336,-7.83332 -1.40043,-9.87326 -15.80219,-7.18932 -11.05887,2.06095 -20.10703,6.98237 -20.10703,10.9365 0,11.52891 31.17682,8.27556 35.90922,-3.74718 z M 457.7815,672.41204 c 5.73806,-7.34916 7.14585,-10.6473 3.12844,-7.3292 -4.01741,3.3181 -12.43635,1.88072 -18.70875,-3.19418 -6.27239,-5.07491 -13.81787,-6.87419 -16.76772,-3.99841 -2.94985,2.87578 -0.39865,5.22869 5.66934,5.22869 7.91889,0 6.9167,4.43393 -3.55093,15.71006 -13.98477,15.06496 -13.87774,15.53011 2.60659,11.32761 9.45462,-2.41035 21.88498,-10.39541 27.62303,-17.74457 z m 86.11209,-21.50014 c 0,-10.33497 2.81733,-17.09337 6.26074,-15.01867 3.44341,2.0747 6.26074,8.8331 6.26074,15.01867 0,6.18556 -2.81733,12.94396 -6.26074,15.01866 -3.44341,2.0747 -6.26074,-4.6837 -6.26074,-15.01866 z"
         id="path3200"
         inkscape:connector-curvature="0" />
      <path
         style="fill:#655432;stroke-width:0.20000001;stroke-miterlimit:4;stroke-dasharray:none;stroke:#000000;stroke-opacity:0.76793246999999998"
         d="m 457.7757,730.25767 c 1.99135,-16.87204 7.77721,-23.02194 23.51051,-24.98978 11.47802,-1.4356 25.19905,-8.05678 30.49119,-14.71371 7.76002,-9.76127 9.45914,-6.50015 8.78016,16.85175 -0.64446,22.16459 -4.36934,28.95526 -15.8828,28.95526 -8.2725,0 -15.0409,-5.49317 -15.0409,-12.20704 0,-6.71388 -3.88861,-12.20705 -8.64136,-12.20705 -5.9567,0 -5.9567,4.89035 0,15.74106 12.06102,21.97028 11.03321,24.94908 -8.60841,24.94908 -13.89317,0 -16.7358,-4.3548 -14.60839,-22.37957 z m -81.724,-18.29201 c 0.98583,-27.05683 2.84763,-27.94488 34.2131,-16.31921 12.03929,4.46238 20.06764,5.23944 17.84078,1.72678 -2.22686,-3.51265 6.97085,-11.14194 20.43936,-16.95397 13.46851,-5.81203 22.11914,-14.30429 19.22362,-18.87168 -3.41089,-5.38035 -7.469,-4.82707 -11.52531,1.57136 -4.47392,7.05718 -7.89035,7.30514 -11.97067,0.86884 -3.14046,-4.95378 -9.96265,-9.00687 -15.16042,-9.00687 -5.19776,0 -2.15873,5.50215 6.7534,12.22701 13.50751,10.19241 13.77301,11.40171 1.59548,7.26735 -8.17889,-2.7768 -14.60839,-0.99472 -14.60839,4.04905 0,4.95478 -5.63466,9.0087 -12.52148,9.0087 -17.29761,0 -15.76834,-21.26282 2.08692,-29.01621 29.41375,-12.77249 49.80283,-10.02697 73.67249,9.92049 13.42682,11.22055 18.23852,18.54079 10.69265,16.2672 -7.91109,-2.38364 -21.78049,4.23099 -32.7588,15.62341 -10.47148,10.86648 -27.77536,19.75722 -38.45307,19.75722 -10.67771,0 -19.41401,3.66212 -19.41401,8.13803 0,4.47592 -6.97377,8.13803 -15.49726,8.13803 -11.84912,0 -15.28801,-5.74283 -14.60839,-24.39553 z m 136.14027,-54.27207 c 5.3673,-13.63576 7.95003,-13.63576 13.31734,0 2.34909,5.96788 -0.64736,10.8507 -6.65867,10.8507 -6.01135,0 -9.00776,-4.88282 -6.65867,-10.8507 z m 33.63171,-10.19837 c -3.63101,-13.53635 -2.54463,-16.71369 3.6499,-10.67473 4.85084,4.72903 7.17726,13.40186 5.16981,19.27297 -2.08398,6.09494 -5.86791,2.40603 -8.81971,-8.59824 z"
         id="path3198"
         inkscape:connector-curvature="0" />
      <path
         style="fill:#325465;stroke-width:0.20000001;stroke-miterlimit:4;stroke-dasharray:none;stroke:#000000;stroke-opacity:0.76793246999999998"
         d="m 456.24325,741.09579 c 0,-25.23256 10.85845,-37.28671 33.58807,-37.28671 12.89982,0 25.0194,-4.57764 26.93241,-10.17254 1.913,-5.59489 3.47819,1.72933 3.47819,16.27606 0,20.22176 -3.60305,26.44859 -15.30404,26.44859 -8.41721,0 -15.30402,-5.49317 -15.30402,-12.20704 0,-6.71388 -3.88861,-12.20705 -8.64136,-12.20705 -5.9567,0 -5.9567,4.89035 0,15.74106 12.01097,21.87912 11.01995,24.94908 -8.05394,24.94908 -9.18242,0 -16.69531,-5.19365 -16.69531,-11.54145 z m -78.2874,-27.11418 c 7.14615,-29.03987 5.72684,-28.18787 31.2176,-18.73967 12.11477,4.49036 22.02685,5.18064 22.02685,1.53396 0,-3.64668 9.60293,-10.89584 21.33984,-16.10925 19.85064,-8.81743 21.63548,-25.68574 2.71781,-25.68574 -4.59121,0 -6.41298,3.05176 -4.04838,6.78169 2.36461,3.72993 -1.00491,6.78169 -7.48779,6.78169 -6.48289,0 -9.55121,-3.52685 -6.81849,-7.83745 2.73271,-4.3106 -0.24986,-6.06691 -6.62794,-3.90292 -6.37809,2.164 -10.49275,9.96332 -9.14368,17.33182 1.40702,7.68502 -3.04202,13.39728 -10.43456,13.39728 -17.54015,0 -16.28875,-18.4281 2.00784,-29.56758 19.19806,-11.68831 42.89042,-9.82549 66.49435,5.22814 17.10599,10.90951 28.25176,31.00554 11.64797,21.00153 -3.92383,-2.36417 -15.84796,4.74393 -26.49806,15.79577 -10.65011,11.05184 -28.10014,20.09425 -38.77785,20.09425 -10.67771,0 -19.41401,3.66212 -19.41401,8.13803 0,4.47592 -7.58446,8.13803 -16.85434,8.13803 -14.15653,0 -15.97283,-3.58222 -11.34716,-22.37958 z M 518.50739,662.5775 c -3.0263,-4.7737 -3.71206,-10.42481 -1.5239,-12.55801 2.18815,-2.13321 6.20285,1.77255 8.92156,8.67946 5.64454,14.34007 0.83351,16.86246 -7.39766,3.87855 z m 27.31629,-15.08228 c -3.63101,-13.53635 -2.54463,-16.71369 3.6499,-10.67473 4.85084,4.72903 7.17726,13.40186 5.16981,19.27297 -2.08398,6.09494 -5.86791,2.40603 -8.81971,-8.59824 z"
         id="path3196"
         inkscape:connector-curvature="0" />
      <path
         style="fill:#657f00;stroke-width:0.20000001;stroke-miterlimit:4;stroke-dasharray:none;stroke:#000000;stroke-opacity:0.76793246999999998"
         d="m 456.24325,741.09579 c 0,-25.15402 10.86494,-37.28671 33.39061,-37.28671 13.50647,0 25.38102,5.39678 28.32367,12.87262 7.34962,18.67185 6.75422,19.67949 -11.62837,19.67949 -9.27517,0 -16.6953,-5.42536 -16.6953,-12.20704 0,-6.71388 -3.88861,-12.20705 -8.64136,-12.20705 -5.9567,0 -5.9567,4.89035 0,15.74106 12.01097,21.87912 11.01995,24.94908 -8.05394,24.94908 -9.18242,0 -16.69531,-5.19365 -16.69531,-11.54145 z m -78.2874,-27.11418 c 7.14615,-29.03987 5.72684,-28.18787 31.2176,-18.73967 12.11477,4.49036 22.02685,5.18064 22.02685,1.53396 0,-3.64668 9.60293,-10.89584 21.33984,-16.10925 19.85064,-8.81743 21.63548,-25.68574 2.71781,-25.68574 -4.59121,0 -6.41298,3.05176 -4.04838,6.78169 2.36461,3.72993 -1.00491,6.78169 -7.48779,6.78169 -6.48289,0 -9.55121,-3.52685 -6.81849,-7.83745 2.73271,-4.3106 -0.24986,-6.06691 -6.62794,-3.90292 -6.37809,2.164 -10.49275,9.96332 -9.14368,17.33182 1.40702,7.68502 -3.04202,13.39728 -10.43456,13.39728 -17.54015,0 -16.28875,-18.4281 2.00784,-29.56758 19.19806,-11.68831 42.89042,-9.82549 66.49435,5.22814 17.10599,10.90951 28.25176,31.00554 11.64797,21.00153 -3.92383,-2.36417 -15.84796,4.74393 -26.49806,15.79577 -10.65011,11.05184 -28.10014,20.09425 -38.77785,20.09425 -10.67771,0 -19.41401,3.66212 -19.41401,8.13803 0,4.47592 -7.58446,8.13803 -16.85434,8.13803 -14.15653,0 -15.97283,-3.58222 -11.34716,-22.37958 z M 518.50739,662.5775 c -3.0263,-4.7737 -3.71206,-10.42481 -1.5239,-12.55801 2.18815,-2.13321 6.20285,1.77255 8.92156,8.67946 5.64454,14.34007 0.83351,16.86246 -7.39766,3.87855 z m 27.31629,-15.08228 c -3.63101,-13.53635 -2.54463,-16.71369 3.6499,-10.67473 4.85084,4.72903 7.17726,13.40186 5.16981,19.27297 -2.08398,6.09494 -5.86791,2.40603 -8.81971,-8.59824 z"
         id="path3194"
         inkscape:connector-curvature="0"
         inkscape:export-filename="/Users/sudhir/Projects/trials/tortlets/sencha_src/tortlets/static/images/tortoise_smaller.png"
         inkscape:export-xdpi="13.015552"
         inkscape:export-ydpi="13.015552" />
      <path
         style="fill:#655400;stroke-width:0.20000001;stroke-miterlimit:4;stroke-dasharray:none;stroke:#000000;stroke-opacity:0.76793246999999998"
         d="m 456.24325,741.09579 c 0,-25.15402 10.86494,-37.28671 33.39061,-37.28671 13.50647,0 25.38102,5.39678 28.32367,12.87262 7.34962,18.67185 6.75422,19.67949 -11.62837,19.67949 -9.27517,0 -16.6953,-5.42536 -16.6953,-12.20704 0,-6.71388 -3.88861,-12.20705 -8.64136,-12.20705 -5.9567,0 -5.9567,4.89035 0,15.74106 12.01097,21.87912 11.01995,24.94908 -8.05394,24.94908 -9.18242,0 -16.69531,-5.19365 -16.69531,-11.54145 z m -78.2874,-27.11418 c 7.11429,-28.9104 5.91841,-28.11687 29.30798,-19.44748 15.85077,5.87512 25.16045,3.53614 43.89711,-11.02878 22.34301,-17.36831 22.8367,-19.01948 8.17036,-27.3264 -8.58523,-4.86262 -11.85308,-8.83066 -7.26187,-8.81786 9.83599,0.0274 45.91208,28.19957 45.91208,35.85316 0,2.90363 -3.21041,3.34502 -7.13424,0.98086 -3.92383,-2.36417 -15.84796,4.74393 -26.49806,15.79577 -10.65011,11.05184 -28.10014,20.09425 -38.77785,20.09425 -10.67771,0 -19.41401,3.66212 -19.41401,8.13803 0,4.47592 -7.58446,8.13803 -16.85434,8.13803 -14.15653,0 -15.97283,-3.58222 -11.34716,-22.37958 z m 20.51287,-40.69014 c 0.39758,-8.5917 2.33625,-10.18583 4.8868,-4.01831 2.32528,5.62278 7.66338,8.15324 11.86245,5.62324 4.19908,-2.53 7.63468,-0.72176 7.63468,4.01831 0,4.74007 -5.63466,8.61831 -12.52148,8.61831 -6.88681,0 -12.22491,-6.4087 -11.86245,-14.24155 z M 518.50739,662.5775 c -3.0263,-4.7737 -3.71206,-10.42481 -1.5239,-12.55801 2.18815,-2.13321 6.20285,1.77255 8.92156,8.67946 5.64454,14.34007 0.83351,16.86246 -7.39766,3.87855 z m -97.88078,-8.60642 c 5.66249,-5.56168 12.39827,-8.06211 14.96841,-5.55652 2.57013,2.5056 -2.06282,7.05606 -10.29544,10.11215 -11.89706,4.41638 -12.8559,3.48162 -4.67297,-4.55563 z m 125.19707,-6.47586 c -3.63101,-13.53635 -2.54463,-16.71369 3.6499,-10.67473 4.85084,4.72903 7.17726,13.40186 5.16981,19.27297 -2.08398,6.09494 -5.86791,2.40603 -8.81971,-8.59824 z"
         id="path3192"
         inkscape:connector-curvature="0" />
      <path
         style="fill:#325432;stroke-width:0.20000001;stroke-miterlimit:4;stroke-dasharray:none;stroke:#000000;stroke-opacity:0.76793246999999998"
         d="m 456.24325,741.09579 c 0,-25.15402 10.86494,-37.28671 33.39061,-37.28671 13.50647,0 25.38102,5.39678 28.32367,12.87262 7.34962,18.67185 6.75422,19.67949 -11.62837,19.67949 -9.27517,0 -16.6953,-5.42536 -16.6953,-12.20704 0,-6.71388 -3.88861,-12.20705 -8.64136,-12.20705 -5.9567,0 -5.9567,4.89035 0,15.74106 12.01097,21.87912 11.01995,24.94908 -8.05394,24.94908 -9.18242,0 -16.69531,-5.19365 -16.69531,-11.54145 z m -80.19579,-17.60723 c 2.78681,-7.07995 5.06693,-17.67448 5.06693,-23.54341 0,-5.86892 5.82977,-12.85169 12.95504,-15.51725 7.12527,-2.66556 10.92396,-1.64265 8.44154,2.27312 -10.20079,16.09075 27.23276,13.45298 48.97884,-3.45131 22.05741,-17.1463 22.5234,-18.75502 7.84149,-27.07076 -8.58523,-4.86262 -11.85308,-8.83066 -7.26187,-8.81786 9.83599,0.0274 45.91208,28.19957 45.91208,35.85316 0,2.90363 -3.21041,3.34502 -7.13424,0.98086 -3.92383,-2.36417 -15.84796,4.74393 -26.49806,15.79577 -10.65011,11.05184 -28.10014,20.09425 -38.77785,20.09425 -10.67771,0 -19.41401,3.66212 -19.41401,8.13803 0,4.47592 -7.91479,8.13803 -17.58841,8.13803 -12.60876,0 -16.15385,-3.64452 -12.52148,-12.87263 z M 518.50739,662.5775 c -3.0263,-4.7737 -3.71206,-10.42481 -1.5239,-12.55801 2.18815,-2.13321 6.20285,1.77255 8.92156,8.67946 5.64454,14.34007 0.83351,16.86246 -7.39766,3.87855 z m 27.31629,-15.08228 c -3.63101,-13.53635 -2.54463,-16.71369 3.6499,-10.67473 4.85084,4.72903 7.17726,13.40186 5.16981,19.27297 -2.08398,6.09494 -5.86791,2.40603 -8.81971,-8.59824 z"
         id="path3190"
         inkscape:connector-curvature="0" />
      <path
         style="fill:#007f32;stroke-width:0.20000001;stroke-miterlimit:4;stroke-dasharray:none;stroke:#000000;stroke-opacity:0.76793246999999998"
         d="m 459.52397,739.76462 c 2.78682,-7.07996 5.06694,-18.06629 5.06694,-24.41409 0,-19.06729 47.26319,-14.80534 52.50463,4.7346 3.2384,12.07271 0.2561,16.27606 -11.54789,16.27606 -8.75258,0 -15.91379,-5.49317 -15.91379,-12.20704 0,-6.71388 -3.88861,-12.20705 -8.64136,-12.20705 -5.9567,0 -5.9567,4.89035 0,15.74106 12.09046,22.0239 11.04145,24.94908 -8.94705,24.94908 -12.60875,0 -16.15385,-3.64451 -12.52148,-12.87262 z m -80.11662,-28.30623 c 2.66311,-17.68929 7.27816,-23.58257 15.93228,-20.34507 6.70075,2.50675 15.85409,4.55773 20.34076,4.55773 4.48666,0 5.83596,3.66211 2.99843,8.13803 -9.22375,14.54957 2.78917,8.6163 26.69978,-13.18724 12.86237,-11.72889 22.43362,-24.58547 21.26944,-28.57018 -1.16418,-3.98471 5.16946,-2.80892 14.07476,2.61288 15.84309,9.64571 15.79882,10.11852 -2.05714,21.97549 -10.03671,6.66473 -21.25257,16.91635 -24.92411,22.7814 -3.67155,5.86503 -15.87999,10.6637 -27.12987,10.6637 -11.24988,0 -20.51185,4.57764 -20.58216,10.17254 -0.0852,6.78168 -2.82516,6.10352 -8.21982,-2.03451 -5.39467,-8.13803 -8.13461,-8.81619 -8.21983,-2.03451 -0.0703,5.5949 -3.23368,10.17254 -7.02972,10.17254 -3.79605,0 -5.21481,-11.20626 -3.1528,-24.9028 z m 166.41633,-63.96317 c -3.63101,-13.53635 -2.54463,-16.71369 3.6499,-10.67473 4.85084,4.72903 7.17726,13.40186 5.16981,19.27297 -2.08398,6.09494 -5.86791,2.40603 -8.81971,-8.59824 z"
         id="path3188"
         inkscape:connector-curvature="0" />
      <path
         style="fill:#322a32;stroke-width:0.20000001;stroke-miterlimit:4;stroke-dasharray:none;stroke:#000000;stroke-opacity:0.76793246999999998"
         d="m 459.52397,739.76462 c 2.78682,-7.07996 5.06694,-18.06629 5.06694,-24.41409 0,-19.06729 47.26319,-14.80534 52.50463,4.7346 3.2384,12.07271 0.2561,16.27606 -11.54789,16.27606 -8.75258,0 -15.91379,-5.49317 -15.91379,-12.20704 0,-6.71388 -3.88861,-12.20705 -8.64136,-12.20705 -5.9567,0 -5.9567,4.89035 0,15.74106 12.09046,22.0239 11.04145,24.94908 -8.94705,24.94908 -12.60875,0 -16.15385,-3.64451 -12.52148,-12.87262 z m -80.11662,-28.30623 c 2.66311,-17.68929 7.27816,-23.58257 15.93228,-20.34507 6.70075,2.50675 15.85409,4.55773 20.34076,4.55773 4.48666,0 5.83596,3.66211 2.99843,8.13803 -9.22375,14.54957 2.78917,8.6163 26.69978,-13.18724 12.86237,-11.72889 22.43362,-24.58547 21.26944,-28.57018 -1.16418,-3.98471 5.16946,-2.80892 14.07476,2.61288 15.84309,9.64571 15.79882,10.11852 -2.05714,21.97549 -10.03671,6.66473 -21.25257,16.91635 -24.92411,22.7814 -3.67155,5.86503 -15.87999,10.6637 -27.12987,10.6637 -11.24988,0 -20.51185,4.57764 -20.58216,10.17254 -0.0852,6.78168 -2.82516,6.10352 -8.21982,-2.03451 -5.39467,-8.13803 -8.13461,-8.81619 -8.21983,-2.03451 -0.0703,5.5949 -3.23368,10.17254 -7.02972,10.17254 -3.79605,0 -5.21481,-11.20626 -3.1528,-24.9028 z m 166.41633,-63.96317 c -3.63101,-13.53635 -2.54463,-16.71369 3.6499,-10.67473 4.85084,4.72903 7.17726,13.40186 5.16981,19.27297 -2.08398,6.09494 -5.86791,2.40603 -8.81971,-8.59824 z"
         id="path3186"
         inkscape:connector-curvature="0" />
      <path
         style="fill:#005432;stroke-width:0.20000001;stroke-miterlimit:4;stroke-dasharray:none;stroke:#000000;stroke-opacity:0.76793246999999998"
         d="m 459.52397,739.76462 c 2.78682,-7.07996 5.06694,-18.06629 5.06694,-24.41409 0,-14.20785 13.75733,-15.52391 14.30974,-1.36892 0.21837,5.5949 3.12453,16.58123 6.4582,24.41409 4.70473,11.0543 1.92508,14.24154 -12.42029,14.24154 -13.42315,0 -17.09471,-3.52322 -13.41459,-12.87262 z m -80.1902,-27.81752 c 4.12187,-27.37884 11.32365,-30.22417 30.11988,-11.89995 11.5502,11.26016 15.35081,10.33011 37.92845,-9.28149 13.80058,-11.98759 22.92517,-25.21353 20.27686,-29.39097 -2.64831,-4.17744 2.85074,-2.92818 12.22009,2.77615 l 17.0352,10.3715 -18.24859,12.11769 c -10.03671,6.66473 -21.25257,16.91635 -24.92411,22.7814 -8.45168,13.50097 -32.70042,13.7576 -46.40923,0.49117 -8.43236,-8.16026 -9.30765,-7.09126 -4.42477,5.40401 4.24839,10.87162 3.13706,13.79919 -3.67927,9.69226 -5.37143,-3.23637 -9.76624,-2.00606 -9.76624,2.73401 0,4.74007 -3.10585,8.61831 -6.90189,8.61831 -3.79605,0 -5.24791,-10.98634 -3.22638,-24.41409 z m 110.30009,9.49437 c 0,-8.20585 5.63466,-14.91972 12.52148,-14.91972 6.88681,0 12.52147,6.71387 12.52147,14.91972 0,8.20585 -5.63466,14.91972 -12.52147,14.91972 -6.88682,0 -12.52148,-6.71387 -12.52148,-14.91972 z"
         id="path3184"
         inkscape:connector-curvature="0" />
      <path
         style="fill:#325400;stroke-width:0.20000001;stroke-miterlimit:4;stroke-dasharray:none;stroke:#000000;stroke-opacity:0.76793246999999998"
         d="m 456.24325,744.75463 c 0,-4.33545 5.67727,-5.75876 12.61615,-3.16293 9.3496,3.49769 11.30707,0.79769 7.56019,-10.42794 -4.1834,-12.5335 -3.50148,-13.04098 3.95134,-2.9406 7.41011,10.04249 9.13398,8.59945 9.72182,-8.13803 0.64802,-18.45198 1.33199,-18.8306 7.35028,-4.06901 6.63574,16.27605 6.63574,16.27605 10.96642,0 3.94866,-14.84031 4.4161,-14.66084 5.29903,2.03451 0.59601,11.27026 -3.84609,18.31056 -11.55314,18.31056 -6.88682,0 -12.52148,3.66211 -12.52148,8.13803 0,4.47591 -7.51289,8.13802 -16.6953,8.13802 -9.18242,0 -16.69531,-3.54717 -16.69531,-7.88261 z m -75.12886,-40.87659 c 0,-17.34095 6.1767,-20.02677 22.62307,-9.83723 7.28773,4.51521 5.54376,9.03349 -6.26074,16.2204 -14.21201,8.65267 -16.36233,7.81381 -16.36233,-6.38317 z m 43.45212,5.01974 c 5.89585,-6.15305 15.75003,-9.30553 21.89816,-7.00552 9.3096,3.48272 9.31693,5.33221 0.0442,11.06275 -6.12396,3.78449 -15.97814,6.93697 -21.89817,7.00551 -8.76518,0.10148 -8.77334,-1.95255 -0.0439,-11.06274 z m 35.14767,-28.7456 c 7.29345,-7.85678 10.43528,-17.21521 6.98185,-20.79651 -3.45342,-3.58131 2.07693,-1.5462 12.28967,4.52245 16.99524,10.09897 17.3489,11.71428 4.17383,19.06339 -25.99406,14.49958 -38.1519,13.05315 -23.44535,-2.78933 z"
         id="path3182"
         inkscape:connector-curvature="0" />
      <path
         style="fill:#322a00;stroke-width:0.20000001;stroke-miterlimit:4;stroke-dasharray:none;stroke:#000000;stroke-opacity:0.76793246999999998"
         d="m 456.24325,744.75463 c 0,-4.33545 5.67727,-5.75876 12.61615,-3.16293 9.3496,3.49769 11.30707,0.79769 7.56019,-10.42794 -4.1834,-12.5335 -3.50148,-13.04098 3.95134,-2.9406 7.41011,10.04249 9.13398,8.59945 9.72182,-8.13803 0.64802,-18.45198 1.33199,-18.8306 7.35028,-4.06901 6.63574,16.27605 6.63574,16.27605 10.96642,0 3.94866,-14.84031 4.4161,-14.66084 5.29903,2.03451 0.59601,11.27026 -3.84609,18.31056 -11.55314,18.31056 -6.88682,0 -12.52148,3.66211 -12.52148,8.13803 0,4.47591 -7.51289,8.13802 -16.6953,8.13802 -9.18242,0 -16.69531,-3.54717 -16.69531,-7.88261 z m -75.12886,-40.87659 c 0,-17.34095 6.1767,-20.02677 22.62307,-9.83723 7.28773,4.51521 5.54376,9.03349 -6.26074,16.2204 -14.21201,8.65267 -16.36233,7.81381 -16.36233,-6.38317 z m 38.16296,10.10357 c 4.15519,-3.35693 10.35841,-9.76563 13.78492,-14.24155 3.55533,-4.64417 6.28491,-2.02379 6.35786,6.10352 0.0711,7.91661 -6.0511,14.24155 -13.78493,14.24155 -7.65201,0 -10.51305,-2.74658 -6.35785,-6.10352 z m 41.20293,-34.6547 c 7.7148,-8.31068 19.7198,-12.98062 26.67778,-10.37764 10.63847,3.97985 10.18173,6.10781 -2.87122,13.3772 -27.37447,15.24528 -39.34331,13.73724 -23.80656,-2.99956 z"
         id="path3180"
         inkscape:connector-curvature="0" />
      <path
         style="fill:#002a32;stroke-width:0.20000001;stroke-miterlimit:4;stroke-dasharray:none;stroke:#000000;stroke-opacity:0.76793246999999998"
         d="m 475.7211,740.78819 c 0,-6.51699 3.13037,-9.96298 6.95639,-7.65775 3.826,2.30522 6.95637,0.0969 6.95637,-4.90728 0,-5.00423 3.47215,-7.00657 7.71588,-4.44966 4.24374,2.55691 9.44265,-1.8046 11.55314,-9.69225 2.92013,-10.91356 4.06869,-9.96485 4.8056,3.96938 0.59601,11.27026 -3.84609,18.31056 -11.55314,18.31056 -6.88682,0 -12.52148,3.66211 -12.52148,8.13803 0,4.47591 -3.13037,8.13802 -6.95637,8.13802 -3.82602,0 -6.95639,-5.33207 -6.95639,-11.84905 z m -77.9114,-21.18334 c 0,-4.74007 -3.75645,-6.355 -8.34766,-3.58873 -4.5912,2.76627 -8.34765,-2.81595 -8.34765,-12.40493 0,-22.42437 18.45332,-16.81386 22.1391,6.73112 1.53951,9.83446 0.94445,17.88085 -1.32235,17.88085 -2.26679,0 -4.12144,-3.87824 -4.12144,-8.61831 z m 16.6953,-2.71805 c 0,-1.75909 5.63466,-5.30626 12.52148,-7.88262 6.88681,-2.57636 12.52147,-1.13711 12.52147,3.19834 0,4.33543 -5.63466,7.88261 -12.52147,7.88261 -6.88682,0 -12.52148,-1.43925 -12.52148,-3.19833 z m 45.97528,-37.55989 c 7.7148,-8.31068 19.7198,-12.98062 26.67778,-10.37764 10.63847,3.97985 10.18173,6.10781 -2.87122,13.3772 -27.37447,15.24528 -39.34331,13.73724 -23.80656,-2.99956 z"
         id="path3178"
         inkscape:connector-curvature="0" />
      <path
         style="fill:#005400;stroke-width:0.20000001;stroke-miterlimit:4;stroke-dasharray:none;stroke:#000000;stroke-opacity:0.76793246999999998"
         d="m 475.7211,740.78819 c 0,-6.51699 3.13037,-9.96298 6.95639,-7.65775 3.826,2.30522 6.95637,0.0969 6.95637,-4.90728 0,-5.00423 3.47215,-7.00657 7.71588,-4.44966 4.24374,2.55691 9.44265,-1.8046 11.55314,-9.69225 2.92013,-10.91356 4.06869,-9.96485 4.8056,3.96938 0.59601,11.27026 -3.84609,18.31056 -11.55314,18.31056 -6.88682,0 -12.52148,3.66211 -12.52148,8.13803 0,4.47591 -3.13037,8.13802 -6.95637,8.13802 -3.82602,0 -6.95639,-5.33207 -6.95639,-11.84905 z m -77.9114,-21.18334 c 0,-4.74007 -2.97666,-6.82483 -6.6148,-4.6328 -3.63814,2.19203 -7.1793,-3.32023 -7.86924,-12.24946 -1.69091,-21.8837 16.39166,-14.96954 19.92783,7.61972 1.53951,9.83446 0.94445,17.88085 -1.32235,17.88085 -2.26679,0 -4.12144,-3.87824 -4.12144,-8.61831 z m 23.47776,-5.07892 c 6.02597,-2.35084 13.22581,-2.06172 15.99967,0.6425 2.77385,2.7042 -2.15648,4.62762 -10.95629,4.27425 -9.72454,-0.39052 -11.70257,-2.31888 -5.04338,-4.91675 z m 39.19282,-35.19902 c 7.7148,-8.31068 19.7198,-12.98062 26.67778,-10.37764 10.63847,3.97985 10.18173,6.10781 -2.87122,13.3772 -27.37447,15.24528 -39.34331,13.73724 -23.80656,-2.99956 z"
         id="path3176"
         inkscape:connector-curvature="0" />
      <path
         style="fill:#002a00;stroke-width:0.20000001;stroke-miterlimit:4;stroke-dasharray:none;stroke:#000000;stroke-opacity:0.76793246999999998"
         d="m 481.43294,739.2077 c 6.76325,-10.58884 16.19087,-15.62271 23.87507,-12.74805 10.81739,4.04678 10.90613,5.2939 0.59911,8.41873 -6.65467,2.01753 -17.39845,7.75416 -23.87506,12.74806 -10.05926,7.75636 -10.14658,6.52926 -0.59911,-8.41874 z m -95.20071,-45.02574 c 2.41089,-3.80294 7.88031,-4.80751 12.15427,-2.23239 10.92192,6.58061 9.69211,9.14683 -4.38343,9.14683 -6.68485,0 -10.18173,-3.1115 -7.77084,-6.91444 z m 74.75752,-15.40387 c 17.74355,-19.11405 19.36989,-19.31705 16.77699,-2.09411 -1.12322,7.46078 -8.62823,14.5074 -16.67778,15.65915 -13.91518,1.99103 -13.92006,1.32333 -0.0992,-13.56504 z"
         id="path3174"
         inkscape:connector-curvature="0" />
      <path
         style="fill:#000000;stroke-width:0.20000001;stroke-miterlimit:4;stroke-dasharray:none;stroke:#000000;stroke-opacity:0.76793246999999998"
         d="m 386.23223,694.18196 c 2.41089,-3.80294 7.88031,-4.80751 12.15427,-2.23239 10.92192,6.58061 9.69211,9.14683 -4.38343,9.14683 -6.68485,0 -10.18173,-3.1115 -7.77084,-6.91444 z"
         id="path3172"
         inkscape:connector-curvature="0" />
    </g>
  </g>
</svg>
